<mxfile host="Electron" agent="Mozilla/5.0 (Windows NT 10.0; Win64; x64) AppleWebKit/537.36 (KHTML, like Gecko) draw.io/24.7.5 Chrome/126.0.6478.183 Electron/31.3.0 Safari/537.36" version="24.7.5">
  <diagram id="C5RBs43oDa-KdzZeNtuy" name="Page-1">
    <mxGraphModel dx="1642" dy="996" grid="1" gridSize="10" guides="1" tooltips="1" connect="1" arrows="1" fold="1" page="1" pageScale="1" pageWidth="827" pageHeight="1169" math="0" shadow="0">
      <root>
        <mxCell id="WIyWlLk6GJQsqaUBKTNV-0" />
        <mxCell id="WIyWlLk6GJQsqaUBKTNV-1" parent="WIyWlLk6GJQsqaUBKTNV-0" />
        <mxCell id="CJKZ5IRd0fSEl3AEi2B6-0" value="" style="rounded=0;whiteSpace=wrap;html=1;fontStyle=0;fontSize=12;" parent="WIyWlLk6GJQsqaUBKTNV-1" vertex="1">
          <mxGeometry x="300" y="70" width="330" height="840" as="geometry" />
        </mxCell>
        <mxCell id="CJKZ5IRd0fSEl3AEi2B6-1" value="" style="rounded=0;whiteSpace=wrap;html=1;fontStyle=0;fontSize=12;" parent="WIyWlLk6GJQsqaUBKTNV-1" vertex="1">
          <mxGeometry x="875" y="70" width="335" height="840" as="geometry" />
        </mxCell>
        <mxCell id="CJKZ5IRd0fSEl3AEi2B6-2" value="serial controller driver" style="text;html=1;align=center;verticalAlign=middle;resizable=0;points=[];autosize=1;strokeColor=none;fillColor=none;fontStyle=0;fontSize=12;" parent="WIyWlLk6GJQsqaUBKTNV-1" vertex="1">
          <mxGeometry x="990" y="40" width="140" height="30" as="geometry" />
        </mxCell>
        <mxCell id="CJKZ5IRd0fSEl3AEi2B6-3" value="" style="endArrow=classic;html=1;rounded=0;entryX=0;entryY=0.5;entryDx=0;entryDy=0;fontStyle=0;fontSize=12;" parent="WIyWlLk6GJQsqaUBKTNV-1" target="CJKZ5IRd0fSEl3AEi2B6-12" edge="1">
          <mxGeometry width="50" height="50" relative="1" as="geometry">
            <mxPoint x="640" y="461" as="sourcePoint" />
            <mxPoint x="875.0000000000002" y="423.8000000000002" as="targetPoint" />
          </mxGeometry>
        </mxCell>
        <mxCell id="CJKZ5IRd0fSEl3AEi2B6-5" value="&lt;div style=&quot;font-size: 12px;&quot;&gt;&lt;span style=&quot;box-sizing: inherit; outline-color: inherit; font-size: 12px;&quot;&gt;read buffer&lt;/span&gt;&lt;/div&gt;" style="text;html=1;align=center;verticalAlign=middle;resizable=0;points=[];autosize=1;strokeColor=none;fillColor=none;fontStyle=0;fontSize=12;" parent="WIyWlLk6GJQsqaUBKTNV-1" vertex="1">
          <mxGeometry x="710" y="461" width="80" height="30" as="geometry" />
        </mxCell>
        <mxCell id="CJKZ5IRd0fSEl3AEi2B6-6" value="SerCx2SystemDmaReceiveCreate" style="text;html=1;align=center;verticalAlign=middle;resizable=0;points=[];autosize=1;strokeColor=none;fillColor=none;fontStyle=0;fontSize=12;" parent="WIyWlLk6GJQsqaUBKTNV-1" vertex="1">
          <mxGeometry x="635" y="80" width="210" height="30" as="geometry" />
        </mxCell>
        <mxCell id="CJKZ5IRd0fSEl3AEi2B6-9" value="SERCX2_SYSTEM_DMA_RECEIVE_CONFIG" style="text;html=1;align=center;verticalAlign=middle;resizable=0;points=[];autosize=0;strokeColor=none;fillColor=none;fontStyle=0;fontSize=12;" parent="WIyWlLk6GJQsqaUBKTNV-1" vertex="1">
          <mxGeometry x="645" y="110" width="210" height="30" as="geometry" />
        </mxCell>
        <mxCell id="CJKZ5IRd0fSEl3AEi2B6-10" value="" style="endArrow=classic;html=1;rounded=0;fontStyle=0;fontSize=12;" parent="WIyWlLk6GJQsqaUBKTNV-1" edge="1">
          <mxGeometry width="50" height="50" relative="1" as="geometry">
            <mxPoint x="860" y="110" as="sourcePoint" />
            <mxPoint x="630" y="110" as="targetPoint" />
          </mxGeometry>
        </mxCell>
        <mxCell id="CJKZ5IRd0fSEl3AEi2B6-12" value="&lt;span style=&quot;text-wrap: nowrap; font-size: 12px;&quot;&gt;EvtSerCx2PioReceiveReadBuffer&lt;/span&gt;" style="rounded=0;whiteSpace=wrap;html=1;fillColor=#d5e8d4;strokeColor=#82b366;fontStyle=0;fontSize=12;" parent="WIyWlLk6GJQsqaUBKTNV-1" vertex="1">
          <mxGeometry x="910" y="451" width="280" height="30" as="geometry" />
        </mxCell>
        <mxCell id="CJKZ5IRd0fSEl3AEi2B6-26" style="rounded=0;orthogonalLoop=1;jettySize=auto;html=1;exitX=0.011;exitY=0.467;exitDx=0;exitDy=0;entryX=1;entryY=0.5;entryDx=0;entryDy=0;exitPerimeter=0;fontStyle=0;fontSize=12;" parent="WIyWlLk6GJQsqaUBKTNV-1" source="CJKZ5IRd0fSEl3AEi2B6-28" target="CJKZ5IRd0fSEl3AEi2B6-24" edge="1">
          <mxGeometry relative="1" as="geometry" />
        </mxCell>
        <mxCell id="CJKZ5IRd0fSEl3AEi2B6-29" value="" style="edgeStyle=orthogonalEdgeStyle;rounded=0;orthogonalLoop=1;jettySize=auto;html=1;fontStyle=0;fontSize=12;" parent="WIyWlLk6GJQsqaUBKTNV-1" source="CJKZ5IRd0fSEl3AEi2B6-13" target="CJKZ5IRd0fSEl3AEi2B6-28" edge="1">
          <mxGeometry relative="1" as="geometry" />
        </mxCell>
        <mxCell id="CJKZ5IRd0fSEl3AEi2B6-13" value="&lt;span style=&quot;text-wrap: nowrap;&quot;&gt;EvtSerCx2SystemDmaReceiveEnableNewDataNotification&lt;/span&gt;" style="rounded=0;whiteSpace=wrap;html=1;fillColor=#d5e8d4;strokeColor=#82b366;fontStyle=0;fontSize=12;" parent="WIyWlLk6GJQsqaUBKTNV-1" vertex="1">
          <mxGeometry x="910" y="541" width="265" height="30" as="geometry" />
        </mxCell>
        <mxCell id="CJKZ5IRd0fSEl3AEi2B6-14" value="&lt;span style=&quot;text-wrap: nowrap; font-size: 12px;&quot;&gt;EvtSerCx2SystemDmaReceiveCancelNewDataNotification&lt;/span&gt;" style="rounded=0;whiteSpace=wrap;html=1;fillColor=#d5e8d4;strokeColor=#82b366;fontStyle=0;fontSize=12;" parent="WIyWlLk6GJQsqaUBKTNV-1" vertex="1">
          <mxGeometry x="910" y="661" width="280" height="30" as="geometry" />
        </mxCell>
        <mxCell id="CJKZ5IRd0fSEl3AEi2B6-15" value="&lt;span style=&quot;text-wrap: nowrap; font-size: 12px;&quot;&gt;EvtSerCx2&lt;/span&gt;&lt;span style=&quot;text-wrap: nowrap;&quot;&gt;SystemDma&lt;/span&gt;&lt;span style=&quot;text-wrap: nowrap; font-size: 12px;&quot;&gt;ReceiveInitializeTransaction&lt;/span&gt;" style="rounded=0;whiteSpace=wrap;html=1;fillColor=#dae8fc;strokeColor=#6c8ebf;fontStyle=0;fontSize=12;" parent="WIyWlLk6GJQsqaUBKTNV-1" vertex="1">
          <mxGeometry x="910" y="190" width="280" height="30" as="geometry" />
        </mxCell>
        <mxCell id="CJKZ5IRd0fSEl3AEi2B6-16" value="" style="endArrow=none;dashed=1;html=1;dashPattern=1 3;strokeWidth=2;rounded=0;entryX=0;entryY=0.5;entryDx=0;entryDy=0;fontStyle=0;fontSize=12;" parent="WIyWlLk6GJQsqaUBKTNV-1" target="CJKZ5IRd0fSEl3AEi2B6-15" edge="1">
          <mxGeometry width="50" height="50" relative="1" as="geometry">
            <mxPoint x="650" y="180" as="sourcePoint" />
            <mxPoint x="730" y="190" as="targetPoint" />
          </mxGeometry>
        </mxCell>
        <mxCell id="CJKZ5IRd0fSEl3AEi2B6-17" value="&lt;span style=&quot;text-wrap: nowrap; font-size: 12px;&quot;&gt;EvtSerCx2&lt;/span&gt;&lt;span style=&quot;text-wrap: nowrap;&quot;&gt;SystemDma&lt;/span&gt;&lt;span style=&quot;text-wrap: nowrap; font-size: 12px;&quot;&gt;ReceiveCleanupTransaction&lt;/span&gt;" style="rounded=0;whiteSpace=wrap;html=1;fillColor=#dae8fc;strokeColor=#6c8ebf;fontStyle=0;fontSize=12;" parent="WIyWlLk6GJQsqaUBKTNV-1" vertex="1">
          <mxGeometry x="910" y="761" width="280" height="30" as="geometry" />
        </mxCell>
        <mxCell id="CJKZ5IRd0fSEl3AEi2B6-18" value="" style="endArrow=none;dashed=1;html=1;dashPattern=1 3;strokeWidth=2;rounded=0;entryX=0;entryY=0.5;entryDx=0;entryDy=0;fontStyle=0;fontSize=12;" parent="WIyWlLk6GJQsqaUBKTNV-1" target="CJKZ5IRd0fSEl3AEi2B6-17" edge="1">
          <mxGeometry width="50" height="50" relative="1" as="geometry">
            <mxPoint x="650" y="691" as="sourcePoint" />
            <mxPoint x="895" y="561" as="targetPoint" />
          </mxGeometry>
        </mxCell>
        <mxCell id="CJKZ5IRd0fSEl3AEi2B6-19" value="&lt;span style=&quot;text-wrap: nowrap; font-size: 12px;&quot;&gt;SerCx2&lt;/span&gt;&lt;span style=&quot;text-wrap: nowrap;&quot;&gt;SystemDma&lt;/span&gt;&lt;span style=&quot;text-wrap: nowrap; font-size: 12px;&quot;&gt;ReceiveInitializeTransactionComplete&lt;/span&gt;" style="rounded=0;whiteSpace=wrap;html=1;fillColor=#dae8fc;strokeColor=#6c8ebf;fontStyle=0;fontSize=12;" parent="WIyWlLk6GJQsqaUBKTNV-1" vertex="1">
          <mxGeometry x="325" y="210" width="265" height="30" as="geometry" />
        </mxCell>
        <mxCell id="CJKZ5IRd0fSEl3AEi2B6-20" value="" style="endArrow=none;dashed=1;html=1;dashPattern=1 3;strokeWidth=2;rounded=0;exitX=1;exitY=0.5;exitDx=0;exitDy=0;entryX=0;entryY=0.5;entryDx=0;entryDy=0;fontStyle=0;fontSize=12;" parent="WIyWlLk6GJQsqaUBKTNV-1" source="CJKZ5IRd0fSEl3AEi2B6-19" target="CJKZ5IRd0fSEl3AEi2B6-15" edge="1">
          <mxGeometry width="50" height="50" relative="1" as="geometry">
            <mxPoint x="660" y="190" as="sourcePoint" />
            <mxPoint x="860" y="190" as="targetPoint" />
          </mxGeometry>
        </mxCell>
        <mxCell id="CJKZ5IRd0fSEl3AEi2B6-21" value="&lt;span style=&quot;text-wrap: nowrap; font-size: 12px;&quot;&gt;SerCx2&lt;/span&gt;&lt;span style=&quot;text-wrap: nowrap;&quot;&gt;SystemDma&lt;/span&gt;&lt;span style=&quot;text-wrap: nowrap; font-size: 12px;&quot;&gt;ReceiveInitializeTransactionComplete&lt;/span&gt;" style="rounded=0;whiteSpace=wrap;html=1;fillColor=#dae8fc;strokeColor=#6c8ebf;fontStyle=0;fontSize=12;" parent="WIyWlLk6GJQsqaUBKTNV-1" vertex="1">
          <mxGeometry x="330" y="751" width="265" height="30" as="geometry" />
        </mxCell>
        <mxCell id="CJKZ5IRd0fSEl3AEi2B6-22" value="" style="endArrow=none;dashed=1;html=1;dashPattern=1 3;strokeWidth=2;rounded=0;exitX=1;exitY=0.5;exitDx=0;exitDy=0;entryX=0;entryY=0.5;entryDx=0;entryDy=0;fontStyle=0;fontSize=12;" parent="WIyWlLk6GJQsqaUBKTNV-1" source="CJKZ5IRd0fSEl3AEi2B6-21" target="CJKZ5IRd0fSEl3AEi2B6-17" edge="1">
          <mxGeometry width="50" height="50" relative="1" as="geometry">
            <mxPoint x="660" y="634" as="sourcePoint" />
            <mxPoint x="860" y="634" as="targetPoint" />
          </mxGeometry>
        </mxCell>
        <mxCell id="CJKZ5IRd0fSEl3AEi2B6-23" value="" style="endArrow=classic;html=1;rounded=0;entryX=0;entryY=0.5;entryDx=0;entryDy=0;fontStyle=0;fontSize=12;" parent="WIyWlLk6GJQsqaUBKTNV-1" target="CJKZ5IRd0fSEl3AEi2B6-13" edge="1">
          <mxGeometry width="50" height="50" relative="1" as="geometry">
            <mxPoint x="635" y="512" as="sourcePoint" />
            <mxPoint x="890" y="520" as="targetPoint" />
          </mxGeometry>
        </mxCell>
        <mxCell id="CJKZ5IRd0fSEl3AEi2B6-24" value="&lt;span style=&quot;text-wrap: nowrap;&quot;&gt;SerCx2SystemDmaReceiveNewDataNotification&lt;/span&gt;" style="rounded=0;whiteSpace=wrap;html=1;fillColor=#d5e8d4;strokeColor=#82b366;fontStyle=0;fontSize=12;" parent="WIyWlLk6GJQsqaUBKTNV-1" vertex="1">
          <mxGeometry x="340" y="551" width="265" height="30" as="geometry" />
        </mxCell>
        <mxCell id="CJKZ5IRd0fSEl3AEi2B6-28" value="receive FIFO no longer empty" style="text;html=1;align=center;verticalAlign=middle;resizable=0;points=[];autosize=1;strokeColor=none;fillColor=none;fontStyle=0;fontSize=12;" parent="WIyWlLk6GJQsqaUBKTNV-1" vertex="1">
          <mxGeometry x="952.5" y="601" width="180" height="30" as="geometry" />
        </mxCell>
        <mxCell id="CJKZ5IRd0fSEl3AEi2B6-30" value="SerCx2" style="text;html=1;align=center;verticalAlign=middle;resizable=0;points=[];autosize=1;strokeColor=none;fillColor=none;fontStyle=0;fontSize=12;" parent="WIyWlLk6GJQsqaUBKTNV-1" vertex="1">
          <mxGeometry x="432.5" y="40" width="60" height="30" as="geometry" />
        </mxCell>
        <mxCell id="CJKZ5IRd0fSEl3AEi2B6-31" value="" style="endArrow=classic;html=1;rounded=0;entryX=0.909;entryY=0.465;entryDx=0;entryDy=0;entryPerimeter=0;fontStyle=0;fontSize=12;" parent="WIyWlLk6GJQsqaUBKTNV-1" target="CJKZ5IRd0fSEl3AEi2B6-0" edge="1">
          <mxGeometry width="50" height="50" relative="1" as="geometry">
            <mxPoint x="490" y="531" as="sourcePoint" />
            <mxPoint x="599.97" y="600.6600000000003" as="targetPoint" />
            <Array as="points">
              <mxPoint x="490" y="461" />
            </Array>
          </mxGeometry>
        </mxCell>
        <mxCell id="CJKZ5IRd0fSEl3AEi2B6-32" value="&lt;font style=&quot;font-size: 36px;&quot;&gt;DMA Receive&lt;/font&gt;" style="text;html=1;align=center;verticalAlign=middle;resizable=0;points=[];autosize=1;strokeColor=none;fillColor=none;fontStyle=0;fontSize=36;" parent="WIyWlLk6GJQsqaUBKTNV-1" vertex="1">
          <mxGeometry x="10" y="300" width="240" height="60" as="geometry" />
        </mxCell>
        <mxCell id="CJKZ5IRd0fSEl3AEi2B6-33" value="" style="rounded=0;whiteSpace=wrap;html=1;fontStyle=0;fontSize=12;" parent="WIyWlLk6GJQsqaUBKTNV-1" vertex="1">
          <mxGeometry x="290" y="1080" width="330" height="994" as="geometry" />
        </mxCell>
        <mxCell id="CJKZ5IRd0fSEl3AEi2B6-34" value="" style="rounded=0;whiteSpace=wrap;html=1;fontStyle=0;fontSize=12;" parent="WIyWlLk6GJQsqaUBKTNV-1" vertex="1">
          <mxGeometry x="865" y="1080" width="335" height="994" as="geometry" />
        </mxCell>
        <mxCell id="CJKZ5IRd0fSEl3AEi2B6-35" value="serial controller driver" style="text;html=1;align=center;verticalAlign=middle;resizable=0;points=[];autosize=1;strokeColor=none;fillColor=none;fontStyle=0;fontSize=12;" parent="WIyWlLk6GJQsqaUBKTNV-1" vertex="1">
          <mxGeometry x="990" y="1010" width="140" height="30" as="geometry" />
        </mxCell>
        <mxCell id="CJKZ5IRd0fSEl3AEi2B6-36" value="" style="endArrow=classic;html=1;rounded=0;entryX=0;entryY=0.5;entryDx=0;entryDy=0;fontStyle=0;fontSize=12;" parent="WIyWlLk6GJQsqaUBKTNV-1" target="CJKZ5IRd0fSEl3AEi2B6-42" edge="1">
          <mxGeometry width="50" height="50" relative="1" as="geometry">
            <mxPoint x="630" y="1384" as="sourcePoint" />
            <mxPoint x="865.0000000000002" y="1346.8000000000002" as="targetPoint" />
          </mxGeometry>
        </mxCell>
        <mxCell id="CJKZ5IRd0fSEl3AEi2B6-37" value="&lt;div style=&quot;font-size: 12px;&quot;&gt;&lt;span style=&quot;box-sizing: inherit; outline-color: inherit; font-size: 12px;&quot;&gt;write buffer&lt;/span&gt;&lt;/div&gt;" style="text;html=1;align=center;verticalAlign=middle;resizable=0;points=[];autosize=1;strokeColor=none;fillColor=none;fontStyle=0;fontSize=12;" parent="WIyWlLk6GJQsqaUBKTNV-1" vertex="1">
          <mxGeometry x="700" y="1384" width="80" height="30" as="geometry" />
        </mxCell>
        <mxCell id="CJKZ5IRd0fSEl3AEi2B6-38" value="SerCx2SystemDmaTransmitCreate" style="text;html=1;align=center;verticalAlign=middle;resizable=0;points=[];autosize=1;strokeColor=none;fillColor=none;fontStyle=0;fontSize=12;" parent="WIyWlLk6GJQsqaUBKTNV-1" vertex="1">
          <mxGeometry x="625" y="1100" width="210" height="30" as="geometry" />
        </mxCell>
        <mxCell id="CJKZ5IRd0fSEl3AEi2B6-39" value="SERCX2_SYSTEM_DMA_TRANSMIT_CONFIG" style="text;html=1;align=center;verticalAlign=middle;resizable=0;points=[];autosize=0;strokeColor=none;fillColor=none;fontStyle=0;fontSize=12;" parent="WIyWlLk6GJQsqaUBKTNV-1" vertex="1">
          <mxGeometry x="635" y="1130" width="210" height="30" as="geometry" />
        </mxCell>
        <mxCell id="CJKZ5IRd0fSEl3AEi2B6-40" value="" style="endArrow=classic;html=1;rounded=0;fontStyle=0;fontSize=12;" parent="WIyWlLk6GJQsqaUBKTNV-1" edge="1">
          <mxGeometry width="50" height="50" relative="1" as="geometry">
            <mxPoint x="850" y="1130" as="sourcePoint" />
            <mxPoint x="620" y="1130" as="targetPoint" />
          </mxGeometry>
        </mxCell>
        <mxCell id="CJKZ5IRd0fSEl3AEi2B6-42" value="&lt;span style=&quot;text-wrap: nowrap; font-size: 12px;&quot;&gt;EvtSerCx2SystemDmaTransmitWriteBuffer&lt;/span&gt;" style="rounded=0;whiteSpace=wrap;html=1;fillColor=#d5e8d4;strokeColor=#82b366;fontStyle=0;fontSize=12;" parent="WIyWlLk6GJQsqaUBKTNV-1" vertex="1">
          <mxGeometry x="900" y="1374" width="265" height="30" as="geometry" />
        </mxCell>
        <mxCell id="CJKZ5IRd0fSEl3AEi2B6-43" style="rounded=0;orthogonalLoop=1;jettySize=auto;html=1;exitX=0.011;exitY=0.467;exitDx=0;exitDy=0;entryX=1;entryY=0.5;entryDx=0;entryDy=0;exitPerimeter=0;fontStyle=0;fontSize=12;" parent="WIyWlLk6GJQsqaUBKTNV-1" source="CJKZ5IRd0fSEl3AEi2B6-57" target="CJKZ5IRd0fSEl3AEi2B6-56" edge="1">
          <mxGeometry relative="1" as="geometry" />
        </mxCell>
        <mxCell id="CJKZ5IRd0fSEl3AEi2B6-44" value="" style="edgeStyle=orthogonalEdgeStyle;rounded=0;orthogonalLoop=1;jettySize=auto;html=1;fontStyle=0;fontSize=12;" parent="WIyWlLk6GJQsqaUBKTNV-1" source="CJKZ5IRd0fSEl3AEi2B6-45" target="CJKZ5IRd0fSEl3AEi2B6-57" edge="1">
          <mxGeometry relative="1" as="geometry" />
        </mxCell>
        <mxCell id="CJKZ5IRd0fSEl3AEi2B6-45" value="&lt;span style=&quot;text-wrap: nowrap; font-size: 12px;&quot;&gt;EvtSerCx2SystemDmaTransmitEnableReadyNotification&lt;/span&gt;" style="rounded=0;whiteSpace=wrap;html=1;fillColor=#d5e8d4;strokeColor=#82b366;fontStyle=0;fontSize=12;" parent="WIyWlLk6GJQsqaUBKTNV-1" vertex="1">
          <mxGeometry x="900" y="1464" width="265" height="30" as="geometry" />
        </mxCell>
        <mxCell id="CJKZ5IRd0fSEl3AEi2B6-46" value="&lt;span style=&quot;text-wrap: nowrap; font-size: 12px;&quot;&gt;EvtSerCx2PioTransmitCancelReadyNotification&lt;/span&gt;" style="rounded=0;whiteSpace=wrap;html=1;fillColor=#d5e8d4;strokeColor=#82b366;fontStyle=0;fontSize=12;" parent="WIyWlLk6GJQsqaUBKTNV-1" vertex="1">
          <mxGeometry x="900" y="1584" width="265" height="30" as="geometry" />
        </mxCell>
        <mxCell id="CJKZ5IRd0fSEl3AEi2B6-47" value="&lt;span style=&quot;text-wrap: nowrap; font-size: 12px;&quot;&gt;EvtSerCx2SystemDmaTransmitInitializeTransaction&lt;/span&gt;" style="rounded=0;whiteSpace=wrap;html=1;fillColor=#dae8fc;strokeColor=#6c8ebf;fontStyle=0;fontSize=12;" parent="WIyWlLk6GJQsqaUBKTNV-1" vertex="1">
          <mxGeometry x="900" y="1188" width="265" height="30" as="geometry" />
        </mxCell>
        <mxCell id="CJKZ5IRd0fSEl3AEi2B6-48" value="" style="endArrow=none;dashed=1;html=1;dashPattern=1 3;strokeWidth=2;rounded=0;entryX=0;entryY=0.5;entryDx=0;entryDy=0;fontStyle=0;fontSize=12;" parent="WIyWlLk6GJQsqaUBKTNV-1" target="CJKZ5IRd0fSEl3AEi2B6-47" edge="1">
          <mxGeometry width="50" height="50" relative="1" as="geometry">
            <mxPoint x="640" y="1178" as="sourcePoint" />
            <mxPoint x="720" y="1188" as="targetPoint" />
          </mxGeometry>
        </mxCell>
        <mxCell id="CJKZ5IRd0fSEl3AEi2B6-49" value="&lt;span style=&quot;text-wrap: nowrap; font-size: 12px;&quot;&gt;EvtSerCx2SystemDmaTransmitCleanupTransaction&lt;/span&gt;" style="rounded=0;whiteSpace=wrap;html=1;fillColor=#dae8fc;strokeColor=#6c8ebf;fontStyle=0;fontSize=12;" parent="WIyWlLk6GJQsqaUBKTNV-1" vertex="1">
          <mxGeometry x="900" y="1971" width="265" height="30" as="geometry" />
        </mxCell>
        <mxCell id="CJKZ5IRd0fSEl3AEi2B6-50" value="" style="endArrow=none;dashed=1;html=1;dashPattern=1 3;strokeWidth=2;rounded=0;entryX=0;entryY=0.5;entryDx=0;entryDy=0;fontStyle=0;fontSize=12;" parent="WIyWlLk6GJQsqaUBKTNV-1" target="CJKZ5IRd0fSEl3AEi2B6-49" edge="1">
          <mxGeometry width="50" height="50" relative="1" as="geometry">
            <mxPoint x="640" y="1934" as="sourcePoint" />
            <mxPoint x="885" y="1771" as="targetPoint" />
          </mxGeometry>
        </mxCell>
        <mxCell id="CJKZ5IRd0fSEl3AEi2B6-51" value="&lt;span style=&quot;text-wrap: nowrap; font-size: 12px;&quot;&gt;SerCx2&lt;/span&gt;&lt;span style=&quot;text-wrap: nowrap;&quot;&gt;SystemDma&lt;/span&gt;&lt;span style=&quot;text-wrap: nowrap; font-size: 12px;&quot;&gt;TransmitInitializeTransactionComplete&lt;/span&gt;" style="rounded=0;whiteSpace=wrap;html=1;fillColor=#dae8fc;strokeColor=#6c8ebf;fontStyle=0;fontSize=12;" parent="WIyWlLk6GJQsqaUBKTNV-1" vertex="1">
          <mxGeometry x="325" y="1208" width="265" height="30" as="geometry" />
        </mxCell>
        <mxCell id="CJKZ5IRd0fSEl3AEi2B6-52" value="" style="endArrow=none;dashed=1;html=1;dashPattern=1 3;strokeWidth=2;rounded=0;exitX=1;exitY=0.5;exitDx=0;exitDy=0;entryX=0;entryY=0.5;entryDx=0;entryDy=0;fontStyle=0;fontSize=12;" parent="WIyWlLk6GJQsqaUBKTNV-1" source="CJKZ5IRd0fSEl3AEi2B6-51" target="CJKZ5IRd0fSEl3AEi2B6-47" edge="1">
          <mxGeometry width="50" height="50" relative="1" as="geometry">
            <mxPoint x="650" y="1188" as="sourcePoint" />
            <mxPoint x="850" y="1188" as="targetPoint" />
          </mxGeometry>
        </mxCell>
        <mxCell id="CJKZ5IRd0fSEl3AEi2B6-53" value="&lt;span style=&quot;text-wrap: nowrap; font-size: 12px;&quot;&gt;SerCx2&lt;/span&gt;&lt;span style=&quot;text-wrap: nowrap;&quot;&gt;SystemDma&lt;/span&gt;&lt;span style=&quot;text-wrap: nowrap;&quot;&gt;Transmit&lt;/span&gt;&lt;span style=&quot;text-wrap: nowrap; font-size: 12px;&quot;&gt;InitializeTransactionComplete&lt;/span&gt;" style="rounded=0;whiteSpace=wrap;html=1;fillColor=#dae8fc;strokeColor=#6c8ebf;fontStyle=0;fontSize=12;" parent="WIyWlLk6GJQsqaUBKTNV-1" vertex="1">
          <mxGeometry x="320" y="1961" width="265" height="30" as="geometry" />
        </mxCell>
        <mxCell id="CJKZ5IRd0fSEl3AEi2B6-54" value="" style="endArrow=none;dashed=1;html=1;dashPattern=1 3;strokeWidth=2;rounded=0;exitX=1;exitY=0.5;exitDx=0;exitDy=0;entryX=0;entryY=0.5;entryDx=0;entryDy=0;fontStyle=0;fontSize=12;" parent="WIyWlLk6GJQsqaUBKTNV-1" source="CJKZ5IRd0fSEl3AEi2B6-53" target="CJKZ5IRd0fSEl3AEi2B6-49" edge="1">
          <mxGeometry width="50" height="50" relative="1" as="geometry">
            <mxPoint x="650" y="1844" as="sourcePoint" />
            <mxPoint x="850" y="1844" as="targetPoint" />
          </mxGeometry>
        </mxCell>
        <mxCell id="CJKZ5IRd0fSEl3AEi2B6-55" value="" style="endArrow=classic;html=1;rounded=0;entryX=0;entryY=0.5;entryDx=0;entryDy=0;fontStyle=0;fontSize=12;exitX=0.995;exitY=0.522;exitDx=0;exitDy=0;exitPerimeter=0;" parent="WIyWlLk6GJQsqaUBKTNV-1" source="J14_GXVmGQ0ArYSJ1UOR-16" target="CJKZ5IRd0fSEl3AEi2B6-45" edge="1">
          <mxGeometry width="50" height="50" relative="1" as="geometry">
            <mxPoint x="625" y="1435" as="sourcePoint" />
            <mxPoint x="880" y="1443" as="targetPoint" />
          </mxGeometry>
        </mxCell>
        <mxCell id="CJKZ5IRd0fSEl3AEi2B6-56" value="&lt;span style=&quot;text-wrap: nowrap; font-size: 12px;&quot;&gt;SerCx2Pio&lt;/span&gt;&lt;span style=&quot;text-wrap: nowrap;&quot;&gt;Transmit&lt;/span&gt;&lt;span style=&quot;text-wrap: nowrap; font-size: 12px;&quot;&gt;Ready&lt;/span&gt;" style="rounded=0;whiteSpace=wrap;html=1;fillColor=#d5e8d4;strokeColor=#82b366;fontStyle=0;fontSize=12;" parent="WIyWlLk6GJQsqaUBKTNV-1" vertex="1">
          <mxGeometry x="330" y="1474" width="265" height="30" as="geometry" />
        </mxCell>
        <mxCell id="CJKZ5IRd0fSEl3AEi2B6-57" value="tx FIFO ready accept data" style="text;html=1;align=center;verticalAlign=middle;resizable=0;points=[];autosize=1;strokeColor=none;fillColor=none;fontStyle=0;fontSize=12;" parent="WIyWlLk6GJQsqaUBKTNV-1" vertex="1">
          <mxGeometry x="952.5" y="1524" width="160" height="30" as="geometry" />
        </mxCell>
        <mxCell id="CJKZ5IRd0fSEl3AEi2B6-58" value="SerCx2" style="text;html=1;align=center;verticalAlign=middle;resizable=0;points=[];autosize=1;strokeColor=none;fillColor=none;fontStyle=0;fontSize=12;" parent="WIyWlLk6GJQsqaUBKTNV-1" vertex="1">
          <mxGeometry x="422.5" y="1010" width="60" height="30" as="geometry" />
        </mxCell>
        <mxCell id="CJKZ5IRd0fSEl3AEi2B6-59" value="" style="endArrow=classic;html=1;rounded=0;entryX=0.909;entryY=0.302;entryDx=0;entryDy=0;entryPerimeter=0;fontStyle=0;fontSize=12;exitX=0.152;exitY=0.33;exitDx=0;exitDy=0;exitPerimeter=0;" parent="WIyWlLk6GJQsqaUBKTNV-1" source="CJKZ5IRd0fSEl3AEi2B6-33" target="CJKZ5IRd0fSEl3AEi2B6-33" edge="1">
          <mxGeometry width="50" height="50" relative="1" as="geometry">
            <mxPoint x="480" y="1454" as="sourcePoint" />
            <mxPoint x="530" y="1404" as="targetPoint" />
            <Array as="points">
              <mxPoint x="340" y="1384" />
            </Array>
          </mxGeometry>
        </mxCell>
        <mxCell id="CJKZ5IRd0fSEl3AEi2B6-60" value="&lt;font style=&quot;font-size: 36px;&quot;&gt;DMA Transmit&lt;/font&gt;" style="text;html=1;align=center;verticalAlign=middle;resizable=0;points=[];autosize=1;strokeColor=none;fillColor=none;fontStyle=0;fontSize=36;" parent="WIyWlLk6GJQsqaUBKTNV-1" vertex="1">
          <mxGeometry x="-5" y="1394" width="250" height="60" as="geometry" />
        </mxCell>
        <mxCell id="J14_GXVmGQ0ArYSJ1UOR-0" value="&lt;span style=&quot;text-wrap: nowrap;&quot;&gt;EvtSerCx2&lt;/span&gt;&lt;span style=&quot;text-wrap: nowrap;&quot;&gt;SystemDma&lt;/span&gt;&lt;span style=&quot;text-wrap: nowrap;&quot;&gt;TransmitPurgeFifo&lt;/span&gt;" style="rounded=0;whiteSpace=wrap;html=1;fillColor=#eeeeee;strokeColor=#36393d;fontStyle=0;fontSize=12;" parent="WIyWlLk6GJQsqaUBKTNV-1" vertex="1">
          <mxGeometry x="900" y="1804" width="265" height="30" as="geometry" />
        </mxCell>
        <mxCell id="J14_GXVmGQ0ArYSJ1UOR-1" value="&lt;span style=&quot;text-wrap: nowrap;&quot;&gt;EvtSerCx2&lt;/span&gt;&lt;span style=&quot;text-wrap: nowrap;&quot;&gt;SystemDma&lt;/span&gt;&lt;span style=&quot;text-wrap: nowrap;&quot;&gt;TransmitCancelDrainFifo&lt;/span&gt;" style="rounded=0;whiteSpace=wrap;html=1;fillColor=#eeeeee;strokeColor=#36393d;fontStyle=0;fontSize=12;" parent="WIyWlLk6GJQsqaUBKTNV-1" vertex="1">
          <mxGeometry x="900" y="1734" width="265" height="30" as="geometry" />
        </mxCell>
        <mxCell id="J14_GXVmGQ0ArYSJ1UOR-2" value="&lt;span style=&quot;text-wrap: nowrap;&quot;&gt;EvtSerCx2SystemDmaTransmitDrainFifo&lt;/span&gt;" style="rounded=0;whiteSpace=wrap;html=1;fillColor=#eeeeee;strokeColor=#36393d;fontStyle=0;fontSize=12;" parent="WIyWlLk6GJQsqaUBKTNV-1" vertex="1">
          <mxGeometry x="900" y="1669" width="265" height="30" as="geometry" />
        </mxCell>
        <mxCell id="J14_GXVmGQ0ArYSJ1UOR-3" value="&lt;span style=&quot;text-wrap: nowrap;&quot;&gt;SerCx2&lt;/span&gt;&lt;span style=&quot;text-wrap: nowrap;&quot;&gt;SystemDma&lt;/span&gt;&lt;span style=&quot;text-wrap: nowrap;&quot;&gt;TransmitPurgeFifoComplete&lt;/span&gt;" style="rounded=0;whiteSpace=wrap;html=1;fillColor=#eeeeee;strokeColor=#36393d;fontStyle=0;fontSize=12;" parent="WIyWlLk6GJQsqaUBKTNV-1" vertex="1">
          <mxGeometry x="330" y="1874" width="265" height="30" as="geometry" />
        </mxCell>
        <mxCell id="J14_GXVmGQ0ArYSJ1UOR-4" value="&lt;span style=&quot;text-wrap: nowrap;&quot;&gt;SerCx2&lt;/span&gt;&lt;span style=&quot;text-wrap: nowrap;&quot;&gt;SystemDma&lt;/span&gt;&lt;span style=&quot;text-wrap: nowrap;&quot;&gt;TransmitDrainFifoComplete&lt;/span&gt;" style="rounded=0;whiteSpace=wrap;html=1;fillColor=#eeeeee;strokeColor=#36393d;fontStyle=0;fontSize=12;" parent="WIyWlLk6GJQsqaUBKTNV-1" vertex="1">
          <mxGeometry x="340" y="1669" width="265" height="30" as="geometry" />
        </mxCell>
        <mxCell id="J14_GXVmGQ0ArYSJ1UOR-12" value="" style="edgeStyle=orthogonalEdgeStyle;rounded=0;orthogonalLoop=1;jettySize=auto;html=1;entryX=-0.004;entryY=0.517;entryDx=0;entryDy=0;entryPerimeter=0;exitX=0.001;exitY=0.433;exitDx=0;exitDy=0;exitPerimeter=0;" parent="WIyWlLk6GJQsqaUBKTNV-1" source="J14_GXVmGQ0ArYSJ1UOR-5" target="J14_GXVmGQ0ArYSJ1UOR-9" edge="1">
          <mxGeometry relative="1" as="geometry">
            <mxPoint x="245" y="1629" as="targetPoint" />
            <Array as="points">
              <mxPoint x="320" y="1626" />
              <mxPoint x="320" y="1760" />
            </Array>
          </mxGeometry>
        </mxCell>
        <mxCell id="J14_GXVmGQ0ArYSJ1UOR-5" value="after the last transmit done,&lt;div&gt;then check if data transmit over&lt;/div&gt;" style="text;html=1;align=center;verticalAlign=middle;resizable=0;points=[];autosize=1;strokeColor=none;fillColor=none;" parent="WIyWlLk6GJQsqaUBKTNV-1" vertex="1">
          <mxGeometry x="370" y="1609" width="190" height="40" as="geometry" />
        </mxCell>
        <mxCell id="J14_GXVmGQ0ArYSJ1UOR-6" value="" style="endArrow=none;dashed=1;html=1;dashPattern=1 3;strokeWidth=2;rounded=0;entryX=0;entryY=0.5;entryDx=0;entryDy=0;fontStyle=0;fontSize=12;exitX=0.981;exitY=0.606;exitDx=0;exitDy=0;exitPerimeter=0;" parent="WIyWlLk6GJQsqaUBKTNV-1" source="J14_GXVmGQ0ArYSJ1UOR-5" target="J14_GXVmGQ0ArYSJ1UOR-2" edge="1">
          <mxGeometry width="50" height="50" relative="1" as="geometry">
            <mxPoint x="580" y="1634" as="sourcePoint" />
            <mxPoint x="840" y="1659" as="targetPoint" />
          </mxGeometry>
        </mxCell>
        <mxCell id="J14_GXVmGQ0ArYSJ1UOR-7" value="check if transmit FIFO empty" style="text;html=1;align=center;verticalAlign=middle;resizable=0;points=[];autosize=1;strokeColor=none;fillColor=none;" parent="WIyWlLk6GJQsqaUBKTNV-1" vertex="1">
          <mxGeometry x="1165" y="1669" width="180" height="30" as="geometry" />
        </mxCell>
        <mxCell id="J14_GXVmGQ0ArYSJ1UOR-8" value="" style="endArrow=none;dashed=1;html=1;dashPattern=1 3;strokeWidth=2;rounded=0;entryX=0;entryY=0.5;entryDx=0;entryDy=0;fontStyle=0;fontSize=12;exitX=1;exitY=0.5;exitDx=0;exitDy=0;" parent="WIyWlLk6GJQsqaUBKTNV-1" source="J14_GXVmGQ0ArYSJ1UOR-4" target="J14_GXVmGQ0ArYSJ1UOR-2" edge="1">
          <mxGeometry width="50" height="50" relative="1" as="geometry">
            <mxPoint x="557" y="1642" as="sourcePoint" />
            <mxPoint x="910" y="1694" as="targetPoint" />
          </mxGeometry>
        </mxCell>
        <mxCell id="J14_GXVmGQ0ArYSJ1UOR-9" value="write op timeout, or is canceled,&lt;div&gt;after FIFO drain sent before&lt;/div&gt;" style="text;html=1;align=center;verticalAlign=middle;resizable=0;points=[];autosize=1;strokeColor=none;fillColor=none;" parent="WIyWlLk6GJQsqaUBKTNV-1" vertex="1">
          <mxGeometry x="360" y="1739" width="190" height="40" as="geometry" />
        </mxCell>
        <mxCell id="J14_GXVmGQ0ArYSJ1UOR-10" value="" style="endArrow=none;dashed=1;html=1;dashPattern=1 3;strokeWidth=2;rounded=0;entryX=0;entryY=0.5;entryDx=0;entryDy=0;fontStyle=0;fontSize=12;exitX=1.005;exitY=0.578;exitDx=0;exitDy=0;exitPerimeter=0;" parent="WIyWlLk6GJQsqaUBKTNV-1" source="J14_GXVmGQ0ArYSJ1UOR-9" target="J14_GXVmGQ0ArYSJ1UOR-1" edge="1">
          <mxGeometry width="50" height="50" relative="1" as="geometry">
            <mxPoint x="562" y="1643" as="sourcePoint" />
            <mxPoint x="910" y="1694" as="targetPoint" />
          </mxGeometry>
        </mxCell>
        <mxCell id="J14_GXVmGQ0ArYSJ1UOR-13" value="write canceled or timeout" style="text;html=1;align=center;verticalAlign=middle;resizable=0;points=[];autosize=1;strokeColor=none;fillColor=none;" parent="WIyWlLk6GJQsqaUBKTNV-1" vertex="1">
          <mxGeometry x="372.5" y="1804" width="160" height="30" as="geometry" />
        </mxCell>
        <mxCell id="J14_GXVmGQ0ArYSJ1UOR-14" value="" style="endArrow=none;dashed=1;html=1;dashPattern=1 3;strokeWidth=2;rounded=0;entryX=0;entryY=0.5;entryDx=0;entryDy=0;fontStyle=0;fontSize=12;exitX=1.022;exitY=0.494;exitDx=0;exitDy=0;exitPerimeter=0;" parent="WIyWlLk6GJQsqaUBKTNV-1" source="J14_GXVmGQ0ArYSJ1UOR-13" target="J14_GXVmGQ0ArYSJ1UOR-0" edge="1">
          <mxGeometry width="50" height="50" relative="1" as="geometry">
            <mxPoint x="561" y="1772" as="sourcePoint" />
            <mxPoint x="910" y="1759" as="targetPoint" />
          </mxGeometry>
        </mxCell>
        <mxCell id="J14_GXVmGQ0ArYSJ1UOR-15" value="" style="endArrow=none;dashed=1;html=1;dashPattern=1 3;strokeWidth=2;rounded=0;entryX=0;entryY=0.5;entryDx=0;entryDy=0;fontStyle=0;fontSize=12;exitX=1;exitY=0.5;exitDx=0;exitDy=0;" parent="WIyWlLk6GJQsqaUBKTNV-1" source="J14_GXVmGQ0ArYSJ1UOR-3" target="J14_GXVmGQ0ArYSJ1UOR-0" edge="1">
          <mxGeometry width="50" height="50" relative="1" as="geometry">
            <mxPoint x="546" y="1829" as="sourcePoint" />
            <mxPoint x="910" y="1829" as="targetPoint" />
          </mxGeometry>
        </mxCell>
        <mxCell id="J14_GXVmGQ0ArYSJ1UOR-16" value="mo more FIFO space" style="text;html=1;align=center;verticalAlign=middle;resizable=0;points=[];autosize=1;strokeColor=none;fillColor=none;" parent="WIyWlLk6GJQsqaUBKTNV-1" vertex="1">
          <mxGeometry x="465" y="1414" width="140" height="30" as="geometry" />
        </mxCell>
        <mxCell id="9yp6eN7DWjsGckbgDTzy-0" value="" style="rounded=0;whiteSpace=wrap;html=1;fontStyle=0;fontSize=12;" vertex="1" parent="WIyWlLk6GJQsqaUBKTNV-1">
          <mxGeometry x="1370" y="70" width="335" height="600" as="geometry" />
        </mxCell>
        <mxCell id="9yp6eN7DWjsGckbgDTzy-1" value="system dma controller" style="text;html=1;align=center;verticalAlign=middle;resizable=0;points=[];autosize=1;strokeColor=none;fillColor=none;" vertex="1" parent="WIyWlLk6GJQsqaUBKTNV-1">
          <mxGeometry x="1450" y="38" width="140" height="30" as="geometry" />
        </mxCell>
        <mxCell id="9yp6eN7DWjsGckbgDTzy-2" value="" style="shape=flexArrow;endArrow=classic;startArrow=classic;html=1;rounded=0;startWidth=34;startSize=11.67;width=30;endSize=11.67;endWidth=34;" edge="1" parent="WIyWlLk6GJQsqaUBKTNV-1">
          <mxGeometry width="100" height="100" relative="1" as="geometry">
            <mxPoint x="1220" y="370" as="sourcePoint" />
            <mxPoint x="1350" y="370" as="targetPoint" />
          </mxGeometry>
        </mxCell>
        <mxCell id="9yp6eN7DWjsGckbgDTzy-3" value="&lt;span style=&quot;text-wrap: nowrap;&quot;&gt;EvtSerCx2SystemDmaReceiveConfigureDmaChannel&lt;/span&gt;" style="rounded=0;whiteSpace=wrap;html=1;fillColor=#dae8fc;strokeColor=#6c8ebf;fontStyle=0;fontSize=12;" vertex="1" parent="WIyWlLk6GJQsqaUBKTNV-1">
          <mxGeometry x="910" y="280" width="280" height="30" as="geometry" />
        </mxCell>
        <mxCell id="9yp6eN7DWjsGckbgDTzy-4" value="&lt;span style=&quot;text-wrap: nowrap;&quot;&gt;ReadDmaCounter&lt;/span&gt;" style="rounded=0;whiteSpace=wrap;html=1;fillColor=#d5e8d4;strokeColor=#82b366;fontStyle=0;fontSize=12;" vertex="1" parent="WIyWlLk6GJQsqaUBKTNV-1">
          <mxGeometry x="1397.5" y="355" width="280" height="30" as="geometry" />
        </mxCell>
        <mxCell id="9yp6eN7DWjsGckbgDTzy-5" value="read canceled or timeout" style="text;html=1;align=center;verticalAlign=middle;resizable=0;points=[];autosize=1;strokeColor=none;fillColor=none;" vertex="1" parent="WIyWlLk6GJQsqaUBKTNV-1">
          <mxGeometry x="382.5" y="610" width="160" height="30" as="geometry" />
        </mxCell>
        <mxCell id="9yp6eN7DWjsGckbgDTzy-6" value="" style="endArrow=classic;html=1;rounded=0;exitX=1.007;exitY=0.606;exitDx=0;exitDy=0;exitPerimeter=0;entryX=0;entryY=0.5;entryDx=0;entryDy=0;" edge="1" parent="WIyWlLk6GJQsqaUBKTNV-1" source="9yp6eN7DWjsGckbgDTzy-5" target="CJKZ5IRd0fSEl3AEi2B6-14">
          <mxGeometry width="50" height="50" relative="1" as="geometry">
            <mxPoint x="700" y="700" as="sourcePoint" />
            <mxPoint x="750" y="650" as="targetPoint" />
          </mxGeometry>
        </mxCell>
        <mxCell id="9yp6eN7DWjsGckbgDTzy-7" value="" style="endArrow=classic;html=1;rounded=0;exitX=0;exitY=0.5;exitDx=0;exitDy=0;" edge="1" parent="WIyWlLk6GJQsqaUBKTNV-1" source="CJKZ5IRd0fSEl3AEi2B6-14">
          <mxGeometry width="50" height="50" relative="1" as="geometry">
            <mxPoint x="950" y="530" as="sourcePoint" />
            <mxPoint x="770" y="590" as="targetPoint" />
          </mxGeometry>
        </mxCell>
        <mxCell id="9yp6eN7DWjsGckbgDTzy-8" value="&lt;span style=&quot;text-wrap: nowrap;&quot;&gt;EvtSerCx2SystemDmaTransmitConfigureDmaChannel&lt;/span&gt;" style="rounded=0;whiteSpace=wrap;html=1;fillColor=#dae8fc;strokeColor=#6c8ebf;fontStyle=0;fontSize=12;" vertex="1" parent="WIyWlLk6GJQsqaUBKTNV-1">
          <mxGeometry x="892.5" y="1280" width="280" height="30" as="geometry" />
        </mxCell>
        <mxCell id="9yp6eN7DWjsGckbgDTzy-9" value="" style="endArrow=none;dashed=1;html=1;dashPattern=1 3;strokeWidth=2;rounded=0;entryX=0;entryY=0.5;entryDx=0;entryDy=0;fontStyle=0;fontSize=12;" edge="1" parent="WIyWlLk6GJQsqaUBKTNV-1" target="9yp6eN7DWjsGckbgDTzy-8">
          <mxGeometry width="50" height="50" relative="1" as="geometry">
            <mxPoint x="640" y="1280" as="sourcePoint" />
            <mxPoint x="910" y="1213" as="targetPoint" />
          </mxGeometry>
        </mxCell>
        <mxCell id="9yp6eN7DWjsGckbgDTzy-10" value="&lt;span style=&quot;text-wrap: nowrap;&quot;&gt;SerCx2SystemDmaTransmitGetDmaEnabler&lt;/span&gt;" style="rounded=0;whiteSpace=wrap;html=1;fillColor=#dae8fc;strokeColor=#6c8ebf;fontStyle=0;fontSize=12;" vertex="1" parent="WIyWlLk6GJQsqaUBKTNV-1">
          <mxGeometry x="325" y="1300" width="265" height="30" as="geometry" />
        </mxCell>
        <mxCell id="9yp6eN7DWjsGckbgDTzy-11" value="" style="endArrow=none;dashed=1;html=1;dashPattern=1 3;strokeWidth=2;rounded=0;exitX=1;exitY=0.5;exitDx=0;exitDy=0;entryX=0;entryY=0.5;entryDx=0;entryDy=0;fontStyle=0;fontSize=12;" edge="1" parent="WIyWlLk6GJQsqaUBKTNV-1" source="9yp6eN7DWjsGckbgDTzy-10" target="9yp6eN7DWjsGckbgDTzy-8">
          <mxGeometry width="50" height="50" relative="1" as="geometry">
            <mxPoint x="600" y="1233" as="sourcePoint" />
            <mxPoint x="910" y="1213" as="targetPoint" />
          </mxGeometry>
        </mxCell>
        <mxCell id="9yp6eN7DWjsGckbgDTzy-13" value="&lt;span style=&quot;text-wrap: nowrap;&quot;&gt;SerCx2SystemDmaReceiveGetDmaEnabler&lt;/span&gt;" style="rounded=0;whiteSpace=wrap;html=1;fillColor=#dae8fc;strokeColor=#6c8ebf;fontStyle=0;fontSize=12;" vertex="1" parent="WIyWlLk6GJQsqaUBKTNV-1">
          <mxGeometry x="330" y="325" width="265" height="30" as="geometry" />
        </mxCell>
        <mxCell id="9yp6eN7DWjsGckbgDTzy-14" value="" style="endArrow=none;dashed=1;html=1;dashPattern=1 3;strokeWidth=2;rounded=0;entryX=0;entryY=0.5;entryDx=0;entryDy=0;fontStyle=0;fontSize=12;" edge="1" parent="WIyWlLk6GJQsqaUBKTNV-1" target="9yp6eN7DWjsGckbgDTzy-3">
          <mxGeometry width="50" height="50" relative="1" as="geometry">
            <mxPoint x="640" y="290" as="sourcePoint" />
            <mxPoint x="920" y="215" as="targetPoint" />
          </mxGeometry>
        </mxCell>
        <mxCell id="9yp6eN7DWjsGckbgDTzy-15" value="" style="endArrow=none;dashed=1;html=1;dashPattern=1 3;strokeWidth=2;rounded=0;entryX=0;entryY=0.5;entryDx=0;entryDy=0;fontStyle=0;fontSize=12;exitX=1;exitY=0.5;exitDx=0;exitDy=0;" edge="1" parent="WIyWlLk6GJQsqaUBKTNV-1" source="9yp6eN7DWjsGckbgDTzy-13" target="9yp6eN7DWjsGckbgDTzy-3">
          <mxGeometry width="50" height="50" relative="1" as="geometry">
            <mxPoint x="650" y="300" as="sourcePoint" />
            <mxPoint x="920" y="305" as="targetPoint" />
          </mxGeometry>
        </mxCell>
        <mxCell id="9yp6eN7DWjsGckbgDTzy-16" value="" style="rounded=0;whiteSpace=wrap;html=1;fontStyle=0;fontSize=12;" vertex="1" parent="WIyWlLk6GJQsqaUBKTNV-1">
          <mxGeometry x="1370" y="1082" width="335" height="600" as="geometry" />
        </mxCell>
        <mxCell id="9yp6eN7DWjsGckbgDTzy-17" value="system dma controller" style="text;html=1;align=center;verticalAlign=middle;resizable=0;points=[];autosize=1;strokeColor=none;fillColor=none;" vertex="1" parent="WIyWlLk6GJQsqaUBKTNV-1">
          <mxGeometry x="1450" y="1050" width="140" height="30" as="geometry" />
        </mxCell>
        <mxCell id="9yp6eN7DWjsGckbgDTzy-18" value="" style="shape=flexArrow;endArrow=classic;startArrow=classic;html=1;rounded=0;startWidth=34;startSize=11.67;width=30;endSize=11.67;endWidth=34;" edge="1" parent="WIyWlLk6GJQsqaUBKTNV-1">
          <mxGeometry width="100" height="100" relative="1" as="geometry">
            <mxPoint x="1220" y="1382" as="sourcePoint" />
            <mxPoint x="1350" y="1382" as="targetPoint" />
          </mxGeometry>
        </mxCell>
        <mxCell id="9yp6eN7DWjsGckbgDTzy-19" value="&lt;span style=&quot;text-wrap: nowrap;&quot;&gt;ReadDmaCounter&lt;/span&gt;" style="rounded=0;whiteSpace=wrap;html=1;fillColor=#d5e8d4;strokeColor=#82b366;fontStyle=0;fontSize=12;" vertex="1" parent="WIyWlLk6GJQsqaUBKTNV-1">
          <mxGeometry x="1397.5" y="1367" width="280" height="30" as="geometry" />
        </mxCell>
      </root>
    </mxGraphModel>
  </diagram>
</mxfile>
